<?xml version="1.0" encoding="iso-8859-1"?>
<!-- Generator: Adobe Illustrator 19.0.0, SVG Export Plug-In . SVG Version: 6.00 Build 0)  -->
<svg version="1.1" id="Layer_1" xmlns="http://www.w3.org/2000/svg" xmlns:xlink="http://www.w3.org/1999/xlink" x="0px" y="0px"
	 viewBox="0 0 280 280" style="enable-background:new 0 0 280 280;" xml:space="preserve">
<g id="XMLID_1272_">
	<circle id="XMLID_1273_" style="fill:#FFAD41;" cx="140" cy="140" r="140"/>
	<path id="XMLID_1274_" style="fill:#FF9811;" d="M140,280C62.68,280,0,217.32,0,140C0,62.681,62.68,0,140,0"/>
	<path id="XMLID_1275_" style="fill:#804C09;" d="M271,140c0,33.137-32.21,55.358-53.926,77.074S173.137,271,140,271
		s-55.358-32.21-77.074-53.926S9,173.137,9,140s32.21-55.358,53.926-77.074S106.863,9,140,9s55.358,32.21,77.074,53.926
		S271,106.863,271,140z"/>
	<path id="XMLID_1276_" style="fill:#402604;" d="M140,9c-33.137,0-55.358,32.21-77.074,53.926S9,106.863,9,140
		s32.21,55.358,53.926,77.074S106.863,271,140,271C140,229,140,68,140,9z"/>
	<circle id="XMLID_1277_" style="fill:#FFFFFF;" cx="140" cy="140" r="40"/>
	<circle id="XMLID_1278_" style="fill:#64C37D;" cx="50" cy="140" r="10"/>
	<circle id="XMLID_1279_" style="fill:#FF5023;" cx="230" cy="140" r="10"/>
	<circle id="XMLID_1280_" style="fill:#FF9811;" cx="140" cy="50" r="10"/>
	<circle id="XMLID_1281_" style="fill:#FFDA44;" cx="140" cy="230" r="10"/>
	<circle id="XMLID_18_" style="fill:#FF5023;" cx="80" cy="200.001" r="10"/>
	<circle id="XMLID_17_" style="fill:#64C37D;" cx="200" cy="80" r="10"/>
	<circle id="XMLID_16_" style="fill:#FFDA44;" cx="80" cy="80" r="10"/>
	<circle id="XMLID_15_" style="fill:#FF9811;" cx="200" cy="200.001" r="10"/>
</g>
<g>
</g>
<g>
</g>
<g>
</g>
<g>
</g>
<g>
</g>
<g>
</g>
<g>
</g>
<g>
</g>
<g>
</g>
<g>
</g>
<g>
</g>
<g>
</g>
<g>
</g>
<g>
</g>
<g>
</g>
</svg>
