<?xml version="1.0" encoding="iso-8859-1"?>
<!-- Generator: Adobe Illustrator 18.0.0, SVG Export Plug-In . SVG Version: 6.00 Build 0)  -->
<!DOCTYPE svg PUBLIC "-//W3C//DTD SVG 1.1//EN" "http://www.w3.org/Graphics/SVG/1.1/DTD/svg11.dtd">
<svg version="1.1" id="Capa_1" xmlns="http://www.w3.org/2000/svg" xmlns:xlink="http://www.w3.org/1999/xlink" x="0px" y="0px"
	 viewBox="0 0 297 297" style="enable-background:new 0 0 297 297;" xml:space="preserve">
<g>
	
		<ellipse transform="matrix(0.9916 0.129 -0.129 0.9916 3.9303 -11.6413)" style="fill:#3C5768;" cx="91.805" cy="24.511" rx="52.27" ry="16.12"/>
	<path style="fill:#AEC1CF;" d="M129.607,170.147c-1.287,0-2.546-0.637-3.287-1.803l-28.164-44.309
		c-1.153-1.814-0.617-4.219,1.196-5.372c1.811-1.153,4.218-0.617,5.372,1.196l28.164,44.309c1.153,1.814,0.617,4.219-1.196,5.372
		C131.045,169.952,130.322,170.147,129.607,170.147z"/>
	<path style="fill:#AEC1CF;" d="M114.779,289.844c-0.925,0-1.852-0.327-2.595-0.992c-1.6-1.434-1.736-3.893-0.303-5.495
		l22.235-24.829c1.434-1.601,3.894-1.736,5.495-0.303c1.6,1.434,1.736,3.893,0.303,5.495l-22.235,24.829
		C116.911,289.406,115.847,289.844,114.779,289.844z"/>
	<path style="fill:#345065;" d="M61.565,86.768v31.427c0,5.688,4.611,10.3,10.3,10.3h59.151c5.689,0,10.3-4.612,10.3-10.3V86.768
		H61.565z"/>
	<path style="opacity:0.3;fill:#345065;" d="M130.315,86.768v27.159c0,5.688-4.611,10.3-10.3,10.3H63.529
		c1.872,2.582,4.904,4.268,8.336,4.268h59.151c5.688,0,10.3-4.612,10.3-10.3V86.768H130.315z"/>
	<path style="fill:#D0D5D9;" d="M131.015,72.834H71.865c-5.474,0-9.939,4.274-10.268,9.666h79.687
		C140.954,77.108,136.49,72.834,131.015,72.834z"/>
	<path style="fill:#292D30;" d="M61.597,82.5c-0.013,0.211-0.032,0.42-0.032,0.634v3.634h79.75v-3.634
		c0-0.214-0.019-0.423-0.032-0.634H61.597z"/>
	<path style="fill:#AEC1CF;" d="M228.957,170.147c-0.714,0-1.436-0.195-2.084-0.607c-1.813-1.153-2.349-3.558-1.196-5.372
		l28.164-44.309c1.153-1.813,3.557-2.349,5.372-1.196c1.813,1.153,2.349,3.558,1.196,5.372l-28.164,44.309
		C231.503,169.51,230.244,170.147,228.957,170.147z"/>
	<path style="fill:#AEC1CF;" d="M243.785,289.844c-1.068,0-2.131-0.438-2.9-1.295l-22.235-24.829
		c-1.433-1.601-1.297-4.06,0.303-5.495c1.6-1.433,4.06-1.297,5.495,0.303l22.235,24.829c1.433,1.601,1.297,4.06-0.303,5.495
		C245.637,289.516,244.709,289.844,243.785,289.844z"/>
	<circle style="fill:#32373B;" cx="179.282" cy="210.725" r="77.842"/>
	<circle style="fill:#D0D5D9;" cx="179.282" cy="210.725" r="69.95"/>
	<path style="opacity:0.3;fill:#5D7486;" d="M200.047,135.706c22.83,13.568,38.137,38.467,38.137,66.952
		c0,42.991-34.851,77.842-77.842,77.842c-7.194,0-14.152-0.996-20.765-2.823c11.627,6.91,25.198,10.891,39.705,10.891
		c42.991,0,77.842-34.851,77.842-77.842C257.125,174.928,232.953,144.795,200.047,135.706z"/>
	<circle style="fill:#C63C22;" cx="179.282" cy="210.725" r="20.763"/>
	<path style="fill:#D0D5D9;" d="M286.7,72.834h-59.151c-5.475,0-9.939,4.274-10.268,9.666h79.687
		C296.639,77.108,292.174,72.834,286.7,72.834z"/>
	<path style="fill:#292D30;" d="M217.281,82.5c-0.013,0.211-0.032,0.42-0.032,0.634v3.634H297v-3.634
		c0-0.214-0.019-0.423-0.032-0.634H217.281z"/>
	<path style="fill:#345065;" d="M217.249,86.768v31.427c0,5.688,4.611,10.3,10.3,10.3H286.7c5.689,0,10.3-4.612,10.3-10.3V86.768
		H217.249z"/>
	<path style="opacity:0.3;fill:#345065;" d="M287.375,86.768v27.159c0,5.688-4.611,10.3-10.3,10.3h-57.863
		c1.872,2.582,4.904,4.268,8.336,4.268H286.7c5.688,0,10.3-4.612,10.3-10.3V86.768H287.375z"/>
	<path style="fill:#AEC1CF;" d="M94.793,281.607l-25.75-30.858c-0.001-0.001-0.002-0.002-0.002-0.003l-17.247-20.668V56.315
		L87.71,31.608c1.771-1.218,2.219-3.64,1.001-5.411c-1.217-1.771-3.64-2.219-5.411-1.001L25.12,65.218
		c-1.771,1.218-2.219,3.64-1.001,5.411c0.755,1.098,1.972,1.686,3.209,1.686c0.76,0,1.529-0.222,2.202-0.685l14.482-9.962v168.278
		L0.903,281.607c-1.377,1.65-1.155,4.104,0.495,5.48c0.728,0.607,1.611,0.903,2.491,0.903c1.114,0,2.22-0.475,2.99-1.398
		l24.08-28.857l13.053,7.817v2.983c0,2.148,1.742,3.891,3.891,3.891s3.891-1.743,3.891-3.891v-2.895l13.366-7.4l23.658,28.351
		c0.77,0.923,1.876,1.398,2.99,1.398c0.879,0,1.763-0.296,2.49-0.903C95.948,285.71,96.17,283.257,94.793,281.607z M36.006,251.686
		l8.006-9.594v14.388L36.006,251.686z M51.794,256.744v-14.52l8.288,9.932L51.794,256.744z"/>
</g>
<g>
</g>
<g>
</g>
<g>
</g>
<g>
</g>
<g>
</g>
<g>
</g>
<g>
</g>
<g>
</g>
<g>
</g>
<g>
</g>
<g>
</g>
<g>
</g>
<g>
</g>
<g>
</g>
<g>
</g>
</svg>
