<?xml version="1.0" encoding="iso-8859-1"?>
<!-- Generator: Adobe Illustrator 19.1.0, SVG Export Plug-In . SVG Version: 6.00 Build 0)  -->
<svg version="1.1" id="Capa_1" xmlns="http://www.w3.org/2000/svg" xmlns:xlink="http://www.w3.org/1999/xlink" x="0px" y="0px"
	 viewBox="0 0 438.643 438.643" style="enable-background:new 0 0 438.643 438.643;" xml:space="preserve">
<g>
	<path style="fill:#FF6666;" d="M212.474,211.39c0.188,2.398,3.307,4.455,6.847,4.455c3.542,0,6.661-2.057,6.848-4.455
		c-0.641-1.138-3.689-3.119-6.843-4.518C216.168,208.279,213.112,210.263,212.474,211.39z"/>
	<path style="fill:#999999;" d="M219.321,294.304c9.195-5,44.705-25.862,60.982-57.835c13.803-27.113-0.191-50.209-7.342-59.378
		l-1.701,2.131c1.441,5.709,3.893,18.801-1.5,26.421c-1.766,2.492-5.131,5.508-11.145,5.725c-0.723,0.027-1.439-0.105-2.103-0.382
		c-0.098-0.041-8.192-3.294-21.6-4.388c0.785,1.385,1.264,2.905,1.264,4.564c0,8.097-7.561,14.684-16.856,14.684
		c-9.294,0-16.855-6.587-16.855-14.684c0-1.659,0.479-3.18,1.264-4.564c-13.407,1.094-21.504,4.349-21.611,4.393
		c-0.659,0.27-1.378,0.399-2.091,0.377c-6.015-0.217-9.38-3.232-11.144-5.725c-5.394-7.62-2.943-20.712-1.501-26.421l-1.73-2.167
		c-7.219,9.112-21.257,32.023-7.312,59.414C174.616,268.441,210.126,289.304,219.321,294.304z"/>
	<path style="fill:#FFCC66;" d="M219.321,183.535c-4.533,0-8.221,2.903-8.221,6.473c0,3.164,2.902,5.8,6.72,6.357
		c1.351,0.246,1.821,0.221,3.007-0.001c3.815-0.559,6.715-3.193,6.715-6.357C227.542,186.438,223.854,183.535,219.321,183.535z"/>
	<path style="fill:#FF6666;" d="M219.329,145.038c2.33-0.049,26.355-0.24,45.84,11.727c-6.018-28.281-21.88-95.186-45.847-141.401
		c-23.967,46.216-39.83,113.12-45.848,141.401C193.006,144.77,217.093,144.985,219.329,145.038z"/>
	<path style="fill:#CCFF66;" d="M221.53,304.44c-1.131,0.565-3.318,0.58-4.417,0c-1.584-0.836-33.476-16.723-55.764-44.988
		c-4.308,6.275-11.38,19.058-14.55,38.765c5.627,5.104,27.121,21.364,72.523,21.364c45.773,0,66.985-16.226,72.528-21.336
		c-3.168-19.726-10.246-32.52-14.555-38.795C255.007,287.718,223.133,303.64,221.53,304.44z"/>
	<path style="fill:#FFCC66;" d="M177.655,179.59c-1.894,6.104-3.335,16.435-0.607,20.278c0.419,0.592,1.042,1.2,2.451,1.423
		c2.968-1.069,11.154-3.655,23.158-4.649c-0.994-2.031-1.556-4.273-1.556-6.634c0-9.083,8.174-16.473,18.221-16.473
		c10.047,0,18.221,7.39,18.221,16.473c0,2.359-0.562,4.601-1.555,6.632c12.005,0.994,20.189,3.582,23.156,4.651
		c1.41-0.223,2.033-0.831,2.451-1.423c2.729-3.844,1.287-14.175-0.607-20.283c-0.492-1.582-0.168-3.311,0.865-4.605l4.184-5.242
		c-17.686-15.238-46.673-14.709-46.721-14.71c-0.044,0.001-29.09-0.471-46.709,14.71l4.184,5.242
		C177.826,176.277,178.15,178.005,177.655,179.59z M231.533,161.572c13.299-2.737,26.042,5.921,26.578,6.291
		c2.273,1.57,2.842,4.684,1.273,6.956c-0.971,1.404-2.531,2.158-4.119,2.158c-0.976,0-1.962-0.284-2.826-0.879
		c-0.083-0.056-2.579-1.726-6.189-3.134c0.76,0.896,1.212,2.032,1.212,3.216c0,1.319-0.54,2.609-1.47,3.54
		c-0.93,0.93-2.22,1.46-3.53,1.46c-1.32,0-2.609-0.53-3.54-1.46c-0.93-0.931-1.46-2.221-1.46-3.54c0-1.311,0.53-2.601,1.46-3.53
		c0.571-0.571,1.285-0.973,2.052-1.215c-2.382-0.449-4.923-0.583-7.422-0.068c-2.705,0.549-5.349-1.185-5.906-3.889
		C227.088,164.774,228.828,162.13,231.533,161.572z M180.532,167.863c0.536-0.369,13.277-9.027,26.578-6.291
		c2.705,0.558,4.445,3.202,3.888,5.906c-0.557,2.706-3.202,4.436-5.906,3.889c-2.489-0.515-5.028-0.379-7.411,0.071
		c0.762,0.243,1.472,0.644,2.041,1.212c0.93,0.93,1.46,2.21,1.46,3.53c0,1.319-0.53,2.609-1.46,3.54c-0.93,0.93-2.22,1.46-3.54,1.46
		c-1.31,0-2.6-0.53-3.53-1.46c-0.93-0.931-1.47-2.221-1.47-3.54c0-1.179,0.449-2.311,1.202-3.204
		c-3.619,1.412-6.119,3.081-6.168,3.114c-0.867,0.6-1.857,0.887-2.837,0.887c-1.587,0-3.148-0.753-4.118-2.158
		C177.691,172.548,178.26,169.433,180.532,167.863z"/>
	<path style="fill:#CCFF66;" d="M219.322,359.134c-43.508,0-67.383-13.914-77.184-21.516l-6.943,14.32
		c5.772,5.665,27.228,21.824,84.126,21.824c56.821,0,78.34-16.163,84.126-21.826l-6.943-14.318
		C286.704,345.22,262.831,359.134,219.322,359.134z"/>
	<path style="fill:#CCFF66;" d="M312.042,284.455c-0.536-18.297-15.75-34.565-23.675-41.825c-1.514,2.844-3.158,5.597-4.901,8.26
		c5.401,6.916,17.418,25.672,19.645,57.675C309.284,300.982,312.29,292.907,312.042,284.455z"/>
	<path style="fill:#669933;" d="M293.241,327.292c0.332-6.172,0.28-11.94-0.075-17.297c-8.803,6.323-25.511,15.207-52.687,18.389
		v19.462C272.886,343.77,289.008,331.13,293.241,327.292z"/>
	<path style="fill:#CC9933;" d="M258.725,414.016c-2.762,0-5-2.238-5-5c0-2.762,2.238-5,5-5h14.107l6.803-28.163
		c-14.123,4.476-33.643,7.909-60.314,7.909c-26.671,0-46.191-3.434-60.315-7.909l6.804,28.163h14.107c2.761,0,5,2.238,5,5
		c0,2.762-2.239,5-5,5c0,0-18.2-0.002-18.248-0.004c-1.109-0.004-10.496,0.359-14.876,14.631h50.641c0,0,0.002-20.522,0.005-20.599
		c0.329-7.138,5.325-20.636,21.882-20.636c16.559,0,21.554,13.498,21.882,20.636c0.003,0.076,0.005,20.599,0.005,20.599h50.634
		c-4.603-14.871-14.756-14.618-14.869-14.631C276.926,414.014,258.725,414.016,258.725,414.016z"/>
	<path style="fill:#CCFF66;" d="M155.178,250.889c-1.744-2.663-3.387-5.415-4.901-8.259c-7.921,7.256-23.139,23.522-23.675,41.824
		c-0.248,8.452,2.758,16.527,8.931,24.108C137.758,276.548,149.782,257.795,155.178,250.889z"/>
	<path style="fill:#669933;" d="M145.401,327.291c4.231,3.837,20.351,16.479,52.763,20.555v-19.462
		c-27.17-3.18-43.881-12.064-52.687-18.389C145.122,315.352,145.07,321.119,145.401,327.291z"/>
	<path style="fill:#999999;" d="M208.164,329.256v19.523c3.558,0.223,7.263,0.354,11.158,0.354c3.895,0,7.6-0.132,11.157-0.354
		v-19.523c-3.566,0.208-7.276,0.325-11.158,0.325C215.44,329.581,211.73,329.464,208.164,329.256z"/>
	<path style="fill:#663333;" d="M183.378,176.977c0.98,0,1.97-0.287,2.837-0.887c0.048-0.033,2.548-1.702,6.168-3.114
		c-0.753,0.894-1.202,2.025-1.202,3.204c0,1.319,0.54,2.609,1.47,3.54c0.93,0.93,2.22,1.46,3.53,1.46c1.32,0,2.61-0.53,3.54-1.46
		c0.93-0.931,1.46-2.221,1.46-3.54c0-1.32-0.53-2.601-1.46-3.53c-0.569-0.568-1.279-0.969-2.041-1.212
		c2.383-0.45,4.922-0.586,7.411-0.071c2.704,0.548,5.349-1.183,5.906-3.889c0.558-2.704-1.183-5.349-3.888-5.906
		c-13.301-2.736-26.042,5.922-26.578,6.291c-2.272,1.57-2.841,4.685-1.272,6.956C180.23,176.224,181.791,176.977,183.378,176.977z"
		/>
	<path style="fill:#663333;" d="M233.551,171.367c2.499-0.515,5.04-0.381,7.422,0.068c-0.767,0.242-1.48,0.644-2.052,1.215
		c-0.93,0.93-1.46,2.22-1.46,3.53c0,1.319,0.53,2.609,1.46,3.54c0.931,0.93,2.22,1.46,3.54,1.46c1.311,0,2.601-0.53,3.53-1.46
		c0.93-0.931,1.47-2.221,1.47-3.54c0-1.184-0.452-2.32-1.212-3.216c3.61,1.408,6.106,3.078,6.189,3.134
		c0.864,0.595,1.851,0.879,2.826,0.879c1.588,0,3.148-0.754,4.119-2.158c1.569-2.272,1-5.386-1.273-6.956
		c-0.536-0.37-13.279-9.028-26.578-6.291c-2.705,0.558-4.445,3.202-3.889,5.906C228.202,170.182,230.846,171.916,233.551,171.367z"
		/>
	<path style="fill:#663333;" d="M322.037,284.119c-0.738-24.395-21.536-44.387-29.403-51.097
		c5.283-14.864,4.683-30.441-1.883-45.521c-4.587-10.537-10.771-17.85-13.311-20.599c-2.53-13.39-21.09-107.353-53.778-164.489
		c-1.37-2.396-4.582-2.995-6.823-1.857c-1.052,0.534-1.857,1.857-1.857,1.857c-32.687,57.135-51.247,151.092-53.779,164.487
		c-2.538,2.747-8.723,10.061-13.312,20.6c-6.565,15.079-7.164,30.657-1.882,45.521c-7.865,6.708-28.664,26.698-29.403,51.097
		c-0.427,14.068,5.845,27.018,18.612,38.524c0.043,1.92,0.109,3.863,0.225,5.861l-10.686,22.038
		c-0.764,1.575-0.648,3.435,0.304,4.902c0.403,0.622,5.939,8.762,22.629,16.155l8.059,33.356
		c-7.656,2.418-17.181,9.938-20.169,27.863c-0.242,1.45,0.167,2.933,1.117,4.054c0.95,1.122,2.345,1.769,3.815,1.769h61.921
		c2.761,0,5-2.238,5-5v-25.21c0.149-2.082,1.407-11.024,11.888-11.024c10.524,0,11.747,9.017,11.887,11.015v25.22
		c0,2.762,2.238,5,5,5h61.921c1.47,0,2.865-0.646,3.815-1.769c0.95-1.121,1.358-2.603,1.116-4.054
		c-2.988-17.926-12.513-25.445-20.169-27.863l8.059-33.356c16.691-7.394,22.228-15.533,22.631-16.155
		c0.952-1.468,1.067-3.327,0.304-4.902l-10.687-22.038c0.116-1.998,0.184-3.944,0.228-5.864
		C316.192,311.136,322.463,298.187,322.037,284.119z M219.322,15.363c23.967,46.216,39.829,113.12,45.847,141.401
		c-19.485-11.967-43.51-11.775-45.84-11.727c-2.236-0.053-26.323-0.268-45.854,11.727
		C179.493,128.483,195.355,61.579,219.322,15.363z M219.315,155.027c0.048,0.001,29.035-0.528,46.721,14.71l-4.184,5.242
		c-1.033,1.295-1.357,3.023-0.865,4.605c1.895,6.108,3.336,16.439,0.607,20.283c-0.418,0.592-1.041,1.2-2.451,1.423
		c-2.967-1.069-11.151-3.657-23.156-4.651c0.993-2.031,1.555-4.272,1.555-6.632c0-9.083-8.174-16.473-18.221-16.473
		c-10.047,0-18.221,7.39-18.221,16.473c0,2.36,0.562,4.603,1.556,6.634c-12.004,0.994-20.19,3.58-23.158,4.649
		c-1.409-0.223-2.032-0.831-2.451-1.423c-2.728-3.844-1.286-14.175,0.607-20.278c0.495-1.585,0.171-3.312-0.865-4.61l-4.184-5.242
		C190.225,154.556,219.271,155.028,219.315,155.027z M220.827,196.364c-1.186,0.222-1.657,0.247-3.007,0.001
		c-3.818-0.558-6.72-3.193-6.72-6.357c0-3.569,3.688-6.473,8.221-6.473c4.534,0,8.221,2.903,8.221,6.473
		C227.542,193.171,224.643,195.806,220.827,196.364z M226.169,211.39c-0.188,2.398-3.307,4.455-6.848,4.455
		c-3.54,0-6.659-2.057-6.847-4.455c0.638-1.128,3.694-3.111,6.852-4.518C222.479,208.271,225.528,210.253,226.169,211.39z
		 M165.651,177.055l1.73,2.167c-1.442,5.709-3.893,18.801,1.501,26.421c1.764,2.492,5.129,5.508,11.144,5.725
		c0.713,0.022,1.433-0.107,2.091-0.377c0.107-0.044,8.205-3.299,21.611-4.393c-0.785,1.385-1.264,2.905-1.264,4.564
		c0,8.097,7.562,14.684,16.855,14.684c9.295,0,16.856-6.587,16.856-14.684c0-1.659-0.478-3.18-1.264-4.564
		c13.407,1.094,21.502,4.347,21.6,4.388c0.664,0.277,1.381,0.409,2.103,0.382c6.014-0.217,9.379-3.232,11.145-5.725
		c5.393-7.62,2.941-20.712,1.5-26.421l1.701-2.131c7.15,9.169,21.145,32.265,7.342,59.378
		c-16.277,31.973-51.787,52.835-60.982,57.835c-9.195-5-44.706-25.862-60.982-57.835
		C144.394,209.078,158.432,186.167,165.651,177.055z M219.321,319.581c-45.402,0-66.896-16.26-72.523-21.364
		c3.17-19.707,10.243-32.49,14.55-38.765c22.288,28.266,54.18,44.152,55.764,44.988c1.099,0.58,3.286,0.565,4.417,0
		c1.602-0.8,33.476-16.723,55.765-44.99c4.309,6.275,11.387,19.069,14.555,38.795C286.307,303.355,265.095,319.581,219.321,319.581z
		 M293.166,309.995c0.355,5.357,0.407,11.125,0.075,17.297c-4.233,3.838-20.355,16.478-52.762,20.554v-19.462
		C267.655,325.202,284.363,316.318,293.166,309.995z M230.479,329.256v19.523c-3.558,0.223-7.262,0.354-11.157,0.354
		c-3.896,0-7.6-0.132-11.158-0.354v-19.523c3.566,0.208,7.276,0.325,11.157,0.325C223.203,329.581,226.913,329.464,230.479,329.256z
		 M198.164,328.384v19.462c-32.412-4.075-48.532-16.718-52.763-20.555c-0.331-6.172-0.279-11.939,0.077-17.296
		C154.283,316.32,170.994,325.204,198.164,328.384z M126.601,284.455c0.537-18.302,15.754-34.568,23.675-41.824
		c1.514,2.844,3.158,5.596,4.901,8.259c-5.396,6.905-17.419,25.658-19.645,57.674C129.359,300.982,126.353,292.907,126.601,284.455z
		 M291.843,428.643h-50.634c0,0-0.002-20.522-0.005-20.599c-0.328-7.138-5.323-20.636-21.882-20.636
		c-16.558,0-21.554,13.498-21.882,20.636c-0.003,0.076-0.005,20.599-0.005,20.599h-50.641c4.38-14.271,13.768-14.635,14.876-14.631
		c0.048,0.002,18.248,0.004,18.248,0.004c2.761,0,5-2.238,5-5c0-2.762-2.239-5-5-5h-14.107l-6.804-28.163
		c14.124,4.476,33.643,7.909,60.315,7.909c26.672,0,46.191-3.434,60.314-7.909l-6.803,28.163h-14.107c-2.762,0-5,2.238-5,5
		c0,2.762,2.238,5,5,5c0,0,18.2-0.002,18.248-0.004C277.087,414.025,287.239,413.772,291.843,428.643z M303.447,351.936
		c-5.786,5.663-27.305,21.826-84.126,21.826c-56.898,0-78.354-16.159-84.126-21.824l6.943-14.32
		c9.801,7.602,33.675,21.516,77.184,21.516c43.509,0,67.382-13.914,77.182-21.516L303.447,351.936z M303.11,308.564
		c-2.227-32.003-14.243-50.759-19.645-57.675c1.743-2.663,3.388-5.416,4.901-8.26c7.925,7.26,23.139,23.528,23.675,41.825
		C312.29,292.907,309.284,300.982,303.11,308.564z"/>
</g>
<g>
</g>
<g>
</g>
<g>
</g>
<g>
</g>
<g>
</g>
<g>
</g>
<g>
</g>
<g>
</g>
<g>
</g>
<g>
</g>
<g>
</g>
<g>
</g>
<g>
</g>
<g>
</g>
<g>
</g>
</svg>
