<?xml version="1.0" encoding="iso-8859-1"?>
<!-- Generator: Adobe Illustrator 19.0.0, SVG Export Plug-In . SVG Version: 6.00 Build 0)  -->
<svg version="1.1" id="Layer_1" xmlns="http://www.w3.org/2000/svg" xmlns:xlink="http://www.w3.org/1999/xlink" x="0px" y="0px"
	 viewBox="0 0 504.123 504.123" style="enable-background:new 0 0 504.123 504.123;" xml:space="preserve">
<g>
	<path style="fill:#45A308;" d="M241.073,203.768c10.027,11.28,3.663,33.296-14.218,49.215
		c-17.881,15.896-114.018,85.031-124.062,73.767c-10.012-11.296,69.892-98.706,87.773-114.601
		C208.431,196.246,231.046,192.496,241.073,203.768z"/>
	<path style="fill:#45A308;" d="M263.05,203.768c-10.027,11.28-3.663,33.296,14.218,49.215
		c17.881,15.896,114.018,85.031,124.062,73.767c10.012-11.296-69.892-98.706-87.773-114.601
		C295.692,196.246,273.077,192.496,263.05,203.768z"/>
</g>
<g>
	<path style="fill:#3A83BA;" d="M228.218,361.905c0,19.511-15.817,124.676-35.336,124.676c-19.495,0-35.304-105.173-35.304-124.676
		c0-19.495,15.817-35.32,35.304-35.32C212.401,326.585,228.218,342.418,228.218,361.905z"/>
	<path style="fill:#3A83BA;" d="M346.569,361.905c0,19.511-15.817,124.676-35.336,124.676c-19.495,0-35.304-105.173-35.304-124.676
		c0-19.495,15.817-35.32,35.304-35.32C330.752,326.585,346.569,342.418,346.569,361.905z"/>
</g>
<path style="fill:#54C911;" d="M351.705,315.242c0,126.322-44.599,84.259-99.643,84.259c-55.028,0-99.643,42.063-99.643-84.259
	c0-72.231,44.631-130.788,99.643-130.788C307.09,184.462,351.705,243.019,351.705,315.242z"/>
<path style="fill:#3997BC;" d="M336.25,256.646c-13.044,0-23.631-10.587-23.631-23.631v-21.417
	c-5.136-5.167-10.65-9.72-16.494-13.525c0.079,0.819,0.244,1.615,0.244,2.45v32.492c0,13.044-10.587,23.631-23.631,23.631h-41.354
	c-13.044,0-23.631-10.587-23.631-23.631v-32.492c0-0.827,0.165-1.631,0.244-2.45c-5.845,3.797-11.351,8.357-16.494,13.525v21.417
	c0,13.044-10.587,23.631-23.631,23.631h-4.813c-6.774,17.613-10.65,37.494-10.65,58.596c0,126.322,44.615,84.259,99.643,84.259
	c55.044,0,99.643,42.063,99.643-84.259c0-21.11-3.868-40.984-10.65-58.596H336.25z"/>
<path style="fill:#965930;" d="M232.629,487.219c0,14.935-17.802,16.904-39.739,16.904s-39.739-1.969-39.739-16.904
	c0-14.935,17.802-35.509,39.739-35.509S232.629,472.277,232.629,487.219z"/>
<path style="fill:#7A4A2A;" d="M232.629,487.219c0,14.935-17.802,16.904-39.739,16.904s-39.739-1.969-39.739-16.904"/>
<path style="fill:#965930;" d="M350.988,487.219c0,14.935-17.802,16.904-39.739,16.904s-39.739-1.969-39.739-16.904
	c0-14.935,17.802-35.509,39.739-35.509S350.988,472.277,350.988,487.219z"/>
<path style="fill:#7A4A2A;" d="M350.988,487.219c0,14.935-17.802,16.904-39.739,16.904s-39.739-1.969-39.739-16.904"/>
<path style="fill:#F9C1AC;" d="M381.015,124.258c0,63-57.738,94.681-128.937,94.681c-71.215,0-128.969-31.673-128.969-94.681
	C123.108,61.227,180.862,0,252.077,0C323.277,0,381.015,61.227,381.015,124.258z"/>
<path style="fill:#F2B09C;" d="M381.015,124.258c0,63-57.738,94.681-128.937,94.681c-71.215,0-128.969-31.673-128.969-94.681"/>
<circle style="fill:#113E49;" cx="190.748" cy="136.428" r="11.532"/>
<path d="M202.279,136.428c0,6.388-5.167,11.54-11.54,11.54c-6.372,0-11.524-5.152-11.524-11.54"/>
<path style="fill:#FFD3C5;" d="M213.496,160.477c-0.614,0-1.245-0.213-1.725-0.709c-5.632-5.632-13.107-8.72-21.047-8.72h-0.016
	c-7.94,0-15.399,3.096-21,8.704c-0.953,0.953-2.489,0.985-3.434,0.016c-0.953-0.922-0.985-2.458-0.031-3.419
	c6.538-6.554,15.218-10.169,24.458-10.169h0.016c9.263,0,17.951,3.6,24.505,10.153c0.937,0.937,0.937,2.505,0,3.434
	C214.756,160.264,214.142,160.477,213.496,160.477z"/>
<circle style="fill:#113E49;" cx="313.423" cy="136.428" r="11.532"/>
<path d="M301.859,136.428c0,6.388,5.151,11.54,11.54,11.54c6.372,0,11.524-5.152,11.524-11.54"/>
<path style="fill:#FFD3C5;" d="M290.643,160.477c0.599,0,1.229-0.213,1.709-0.709c5.632-5.632,13.107-8.72,21.047-8.72h0.016
	c7.94,0,15.415,3.096,21.016,8.704c0.937,0.953,2.473,0.985,3.434,0.016c0.953-0.922,0.969-2.458,0.016-3.419
	c-6.506-6.554-15.218-10.169-24.458-10.169h-0.016c-9.248,0-17.936,3.6-24.505,10.153c-0.922,0.937-0.922,2.505,0,3.434
	C289.382,160.264,289.997,160.477,290.643,160.477z"/>
<path style="fill:#6D0000;" d="M268.06,188.463c0,8.846-7.16,15.998-15.998,15.998l0,0c-8.838,0-15.998-7.152-15.998-15.998v-10.335
	c0-8.83,7.16-15.998,15.998-15.998l0,0c8.838,0,15.998,7.168,15.998,15.998V188.463z"/>
<path style="fill:#AA1111;" d="M236.686,192.646c1.843,6.798,7.995,11.815,15.376,11.815c7.381,0,13.533-5.018,15.376-11.815
	c-1.843-6.798-7.995-11.815-15.376-11.815C244.681,180.831,238.529,185.848,236.686,192.646z"/>
<circle style="fill:#FFB000;" cx="199.546" cy="259.277" r="23.631"/>
<path style="fill:#F49600;" d="M216.261,242.57c9.232,9.232,9.232,24.182,0,33.414c-9.232,9.232-24.198,9.232-33.422,0"/>
<circle style="fill:#FFB000;" cx="304.601" cy="259.277" r="23.631"/>
<path style="fill:#F49600;" d="M321.276,242.57c9.24,9.232,9.24,24.182,0,33.414c-9.224,9.232-24.182,9.232-33.414,0"/>
<path style="fill:#663F24;" d="M256.095,163.249c0,0-14.895-32.043-54.957-5.727c-40.046,26.34-43.488,18.306-43.488,18.306
	s42.346,30.925,88.135,11.477l6.877-5.75L256.095,163.249z"/>
<path style="fill:#543722;" d="M157.649,175.829c0,0,42.346,30.925,88.135,11.477l6.877-5.75l3.434-18.306"/>
<path style="fill:#663F24;" d="M248.044,163.249c0,0,14.88-32.043,54.942-5.727c40.054,26.34,43.488,18.306,43.488,18.306
	s-42.338,30.925-88.135,11.477l-6.877-5.75L248.044,163.249z"/>
<path style="fill:#543722;" d="M346.474,175.829c0,0-42.338,30.925-88.135,11.477l-6.877-5.75l-3.419-18.306"/>
<path style="fill:#54C911;" d="M125.023,105.031h254.078C368.892,49.357,315.983,0,252.077,0
	C188.156,0,135.231,49.357,125.023,105.031z"/>
<circle style="fill:#EBF0F2;" cx="252.062" cy="63.173" r="43.811"/>
<path style="fill:#C8D3D6;" d="M252.062,19.354c24.198,0,43.811,19.614,43.811,43.811s-19.614,43.811-43.811,43.811"/>
<g>
	<path style="fill:#45A308;" d="M386.505,104.495c0,2.473-60.195,4.458-134.443,4.458s-134.443-1.985-134.443-4.458
		c0-2.45,60.195-16.219,134.443-16.219S386.505,102.046,386.505,104.495z"/>
	<rect x="235.52" y="42.661" style="fill:#45A308;" width="13.785" height="33.477"/>
	<rect x="235.52" y="62.354" style="fill:#45A308;" width="33.477" height="13.785"/>
</g>
<g>
</g>
<g>
</g>
<g>
</g>
<g>
</g>
<g>
</g>
<g>
</g>
<g>
</g>
<g>
</g>
<g>
</g>
<g>
</g>
<g>
</g>
<g>
</g>
<g>
</g>
<g>
</g>
<g>
</g>
</svg>
