<?xml version="1.0" encoding="iso-8859-1"?>
<!-- Generator: Adobe Illustrator 19.0.0, SVG Export Plug-In . SVG Version: 6.00 Build 0)  -->
<svg version="1.1" id="Layer_1" xmlns="http://www.w3.org/2000/svg" xmlns:xlink="http://www.w3.org/1999/xlink" x="0px" y="0px"
	 viewBox="0 0 313.976 313.976" style="enable-background:new 0 0 313.976 313.976;" xml:space="preserve">
<g>
	<path style="fill:#4EFFBB;" d="M312.038,151.381c-21.928-63.038-81.17-105.4-147.478-105.4
		c-66.268,0-125.51,42.361-147.438,105.399c-2.625,7.551-2.625,15.87,0,23.382c21.928,63.078,81.17,105.44,147.438,105.44
		c66.309,0,125.551-42.362,147.478-105.44C314.623,167.251,314.623,158.932,312.038,151.381z"/>
	<g id="XMLID_11_">
		<g>
			<path style="fill:#222051;" d="M296.885,139.174c2.584,7.551,2.584,15.87,0,23.382c-21.928,63.078-81.17,105.44-147.478,105.44
				c-66.268,0-125.51-42.362-147.438-105.44c-2.625-7.511-2.625-15.83,0-23.382c21.927-63.038,81.169-105.4,147.438-105.4
				C215.715,33.774,274.957,76.136,296.885,139.174z M259.531,144.302h22.13c-5.815-16.678-14.619-31.701-25.603-44.664
				C258.198,113.894,259.369,128.836,259.531,144.302z M280.489,160.456h-21.161c-0.566,14.982-2.1,29.439-4.523,43.169
				C265.709,191.146,274.432,176.568,280.489,160.456z M234.089,223.009c6.017-22.736,9.49-48.217,9.49-75.153
				c0-24.028-2.746-46.844-7.632-67.641c-1.898-1.494-3.836-3.029-5.815-4.442c4.119,22.089,6.421,46.36,6.421,72.083
				c0,28.43-2.827,55.123-7.794,79.029C230.576,225.633,232.313,224.341,234.089,223.009z M194.474,144.302h26.006
				c-0.242-29.803-3.554-56.617-8.965-79.716c-18.939-9.409-40.06-14.659-62.109-14.659c-21.161,0-41.514,4.886-59.848,13.649
				c-5.573,23.301-8.965,50.519-9.207,80.725h27.258v-6.784c0-4.483,3.594-8.077,7.996-8.077c4.442,0,8.036,3.594,8.036,8.077v6.784
				h19.263v-6.784c0-4.483,3.594-8.077,7.996-8.077c4.442,0,8.036,3.594,8.036,8.077v6.784h19.505v-6.784
				c0-4.483,3.594-8.077,8.036-8.077c4.402,0,7.996,3.594,7.996,8.077L194.474,144.302L194.474,144.302z M220.319,160.456h-25.845
				v6.34c0,4.442-3.594,8.077-7.996,8.077c-4.442,0-8.036-3.635-8.036-8.077v-6.34h-19.505v6.34c0,4.442-3.594,8.077-8.036,8.077
				c-4.402,0-7.996-3.635-7.996-8.077v-6.34h-19.263v6.34c0,4.442-3.594,8.077-8.036,8.077c-4.402,0-7.996-3.635-7.996-8.077v-6.34
				H80.513c0.888,29.6,4.805,56.051,10.782,78.504c17.89,8.279,37.597,12.882,58.111,12.882c21.403,0,41.917-4.967,60.413-13.892
				C215.634,215.699,219.43,189.612,220.319,160.456z M67.308,224.947c1.656,1.212,3.392,2.342,5.088,3.473
				c-5.169-24.31-8.117-51.528-8.117-80.564c0-26.289,2.383-51.084,6.663-73.578c-1.898,1.292-3.796,2.665-5.654,4.079
				c-5.129,21.241-8.036,44.744-8.036,69.499C57.253,175.599,60.928,201.767,67.308,224.947z M46.511,206.33
				c-2.706-14.538-4.402-29.883-5.007-45.875h-23.14C24.866,177.78,34.477,193.246,46.511,206.33z M41.302,144.302
				c0.162-16.476,1.494-32.428,3.877-47.49c-12.115,13.528-21.766,29.601-28.026,47.49H41.302z"/>
			<path style="fill:#302C58;" d="M281.661,144.302h-22.13c-0.162-15.467-1.333-30.408-3.473-44.664
				C267.042,112.602,275.845,127.624,281.661,144.302z"/>
			<path style="fill:#302C58;" d="M259.329,160.456h21.161c-6.057,16.113-14.78,30.691-25.684,43.169
				C257.229,189.895,258.763,175.438,259.329,160.456z"/>
			<path style="fill:#302C58;" d="M220.48,144.302h-26.006v-6.784c0-4.483-3.594-8.077-7.996-8.077
				c-4.442,0-8.036,3.594-8.036,8.077v6.784h-19.505v-6.784c0-4.483-3.594-8.077-8.036-8.077c-4.402,0-7.996,3.594-7.996,8.077
				v6.784h-19.263v-6.784c0-4.483-3.594-8.077-8.036-8.077c-4.402,0-7.996,3.594-7.996,8.077v6.784H80.352
				c0.242-30.206,3.635-57.424,9.207-80.725c18.334-8.763,38.687-13.649,59.848-13.649c22.049,0,43.169,5.25,62.109,14.659
				C216.927,87.685,220.238,114.5,220.48,144.302z"/>
			<path style="fill:#302C58;" d="M194.474,160.456h25.845c-0.888,29.156-4.684,55.244-10.499,77.495
				c-18.495,8.925-39.01,13.892-60.413,13.892c-20.515,0-40.221-4.604-58.111-12.882c-5.977-22.453-9.894-48.904-10.782-78.504
				h27.097v6.34c0,4.442,3.594,8.077,7.996,8.077c4.442,0,8.036-3.635,8.036-8.077v-6.34h19.263v6.34
				c0,4.442,3.594,8.077,7.996,8.077c4.442,0,8.036-3.635,8.036-8.077v-6.34h19.505v6.34c0,4.442,3.594,8.077,8.036,8.077
				c4.402,0,7.996-3.635,7.996-8.077v-6.341H194.474z"/>
			<path style="fill:#302C58;" d="M41.503,160.456c0.606,15.992,2.302,31.337,5.007,45.875
				c-12.034-13.084-21.645-28.55-28.147-45.875H41.503z"/>
			<path style="fill:#302C58;" d="M45.178,96.812c-2.382,15.063-3.715,31.014-3.877,47.49H17.153
				C23.412,126.413,33.063,110.34,45.178,96.812z"/>
		</g>
	</g>
</g>
<g>
</g>
<g>
</g>
<g>
</g>
<g>
</g>
<g>
</g>
<g>
</g>
<g>
</g>
<g>
</g>
<g>
</g>
<g>
</g>
<g>
</g>
<g>
</g>
<g>
</g>
<g>
</g>
<g>
</g>
</svg>
