<?xml version="1.0" encoding="iso-8859-1"?>
<!-- Generator: Adobe Illustrator 19.0.0, SVG Export Plug-In . SVG Version: 6.00 Build 0)  -->
<svg version="1.1" id="Layer_1" xmlns="http://www.w3.org/2000/svg" xmlns:xlink="http://www.w3.org/1999/xlink" x="0px" y="0px"
	 viewBox="0 0 501.999 501.999" style="enable-background:new 0 0 501.999 501.999;" xml:space="preserve">
<g>
	<path style="fill:#CCCCCC;" d="M331.707,492H147.874c-28.477,0-51.563-23.085-51.563-51.563l0,0h309.377l0,0
		C405.688,456.878,391.864,492,331.707,492z"/>
	<polygon style="fill:#CCCCCC;" points="284.732,116.203 133.302,355.247 339.553,393.873 339.553,198.635 	"/>
	<g>
		<polygon style="fill:#50A5DC;" points="339.553,29.662 284.732,116.203 339.553,198.635 		"/>
		<g>
			<path d="M412.76,433.366c-1.876-1.875-4.419-2.929-7.071-2.929h-56.135v-36.565V198.635V29.662V10c0-5.523-4.478-10-10-10
				c-5.522,0-10,4.477-10,10v16.762l-53.27,84.089L124.855,349.895c-1.775,2.802-2.046,6.301-0.722,9.342
				c1.323,3.041,4.068,5.228,7.328,5.838l198.092,37.098v28.263H96.311c-5.522,0-10,4.477-10,10
				c0,33.946,27.617,61.563,61.563,61.563h183.833c66.43,0,83.981-40.27,83.981-61.563
				C415.688,437.785,414.635,435.241,412.76,433.366z M329.554,165.54l-32.9-49.47l32.9-51.936V165.54z M149.646,348.133
				l135.289-213.566l44.618,67.09v180.168L149.646,348.133z M331.707,482H147.874c-19.471,0-35.858-13.46-40.347-31.563h286.31
				C388.728,464.727,372.046,482,331.707,482z"/>
			<path d="M246.073,251.51c-4.67-2.946-10.847-1.547-13.793,3.123l-42.422,67.255c-2.946,4.671-1.548,10.847,3.123,13.793
				c1.656,1.045,3.502,1.543,5.325,1.543c3.319,0,6.566-1.652,8.468-4.667l42.422-67.255
				C252.143,260.631,250.744,254.456,246.073,251.51z"/>
			<path d="M280.175,197.715c-4.668-2.956-10.844-1.569-13.799,3.097l-12.071,19.056c-2.956,4.666-1.569,10.843,3.096,13.799
				c1.661,1.052,3.512,1.554,5.342,1.554c3.313,0,6.554-1.645,8.457-4.65l12.071-19.056
				C286.227,206.848,284.84,200.67,280.175,197.715z"/>
		</g>
	</g>
</g>
<g>
</g>
<g>
</g>
<g>
</g>
<g>
</g>
<g>
</g>
<g>
</g>
<g>
</g>
<g>
</g>
<g>
</g>
<g>
</g>
<g>
</g>
<g>
</g>
<g>
</g>
<g>
</g>
<g>
</g>
</svg>
